<svg width="20" height="20" viewBox="0 0 20 20" fill="none" xmlns="http://www.w3.org/2000/svg">
<path d="M5.83333 11.6667C5.46957 11.6672 5.11031 11.7471 4.78062 11.9008C4.45093 12.0546 4.15876 12.2784 3.9245 12.5567C3.69023 12.835 3.51952 13.161 3.42428 13.5121C3.32903 13.8632 3.31155 14.2308 3.37304 14.5893C3.43454 14.9478 3.57354 15.2886 3.78033 15.5879C3.98713 15.8872 4.25674 16.1377 4.57035 16.322C4.88396 16.5063 5.23402 16.62 5.59609 16.655C5.95816 16.6901 6.32352 16.6457 6.66667 16.525" stroke="#FFB21E" stroke-width="1.25" stroke-linecap="round" stroke-linejoin="round"/>
<path d="M3.55333 13.0042C3.05463 12.7641 2.62357 12.4036 2.29904 11.9552C1.97451 11.5069 1.76674 10.9848 1.69446 10.436C1.62219 9.88729 1.6877 9.32918 1.88507 8.81209C2.08244 8.295 2.40547 7.83519 2.825 7.47417M2.85 7.40667C2.5767 6.99771 2.45692 6.50524 2.51185 6.01644C2.56678 5.52765 2.79289 5.07405 3.15015 4.73596C3.5074 4.39786 3.97276 4.19707 4.46384 4.16914C4.95492 4.14121 5.44004 4.28793 5.83333 4.58333M6.03167 4.6375C5.89873 4.35504 5.83097 4.04631 5.8334 3.73414C5.83582 3.42196 5.90838 3.11433 6.04569 2.83397C6.18301 2.55361 6.38158 2.30769 6.62672 2.11439C6.87186 1.9211 7.15731 1.78537 7.46197 1.71723C7.76663 1.6491 8.0827 1.6503 8.38683 1.72075C8.69096 1.79121 8.97537 1.92911 9.21903 2.12426C9.46269 2.31942 9.65938 2.56684 9.79456 2.84824C9.92974 3.12964 9.99995 3.43782 10 3.75V16.6667C10 17.1087 9.8244 17.5326 9.51184 17.8452C9.19928 18.1577 8.77536 18.3333 8.33333 18.3333C7.8913 18.3333 7.46738 18.1577 7.15482 17.8452C6.84226 17.5326 6.66667 17.1087 6.66667 16.6667M10 5.83333C10 6.49638 10.2634 7.13226 10.7322 7.6011C11.2011 8.06994 11.837 8.33333 12.5 8.33333M14.1667 11.6667C14.5304 11.6672 14.8897 11.7471 15.2194 11.9008C15.5491 12.0546 15.8412 12.2784 16.0755 12.5567C16.3098 12.8349 16.4805 13.161 16.5757 13.5121C16.671 13.8632 16.6885 14.2308 16.627 14.5893C16.5655 14.9478 16.4265 15.2886 16.2197 15.5879C16.0129 15.8872 15.7433 16.1377 15.4296 16.322C15.116 16.5063 14.766 16.62 14.4039 16.655C14.0418 16.6901 13.6765 16.6457 13.3333 16.525" stroke="#FFB21E" stroke-width="1.25" stroke-linecap="round" stroke-linejoin="round"/>
<path d="M16.4467 13.0042C16.9454 12.7641 17.3764 12.4036 17.701 11.9552C18.0255 11.5069 18.2333 10.9848 18.3055 10.436C18.3778 9.88729 18.3123 9.32918 18.1149 8.81209C17.9176 8.295 17.5945 7.83519 17.175 7.47417M17.15 7.40667C17.4233 6.99771 17.5431 6.50524 17.4881 6.01644C17.4332 5.52765 17.2071 5.07405 16.8499 4.73596C16.4926 4.39786 16.0272 4.19707 15.5362 4.16914C15.0451 4.14121 14.56 4.28793 14.1667 4.58333M10 3.75C10.0001 3.43782 10.0703 3.12964 10.2054 2.84824C10.3406 2.56684 10.5373 2.31942 10.781 2.12426C11.0246 1.92911 11.309 1.79121 11.6132 1.72075C11.9173 1.6503 12.2334 1.6491 12.538 1.71723C12.8427 1.78537 13.1281 1.9211 13.3733 2.11439C13.6184 2.30769 13.817 2.55361 13.9543 2.83397C14.0916 3.11433 14.1642 3.42196 14.1666 3.73414C14.169 4.04631 14.1013 4.35504 13.9683 4.6375M13.3333 16.6667C13.3333 17.1087 13.1577 17.5326 12.8452 17.8452C12.5326 18.1577 12.1087 18.3333 11.6667 18.3333C11.2246 18.3333 10.8007 18.1577 10.4882 17.8452C10.1756 17.5326 10 17.1087 10 16.6667" stroke="#FFB21E" stroke-width="1.25" stroke-linecap="round" stroke-linejoin="round"/>
</svg>
